<svg aria-hidden="true" width="157" height="51" fill="none" xmlns="http://www.w3.org/2000/svg"><g clip-path="url(#a)"><path d="M147.599 30.447v-10.2h-3.526v-3.375h3.526V10.89h3.76v5.982h4.858v3.375h-4.858v9.97c0 2.224.94 3.144 2.664 3.144.705 0 1.175-.077 1.724-.307l1.331 3.145c-.861.383-1.723.536-2.977.536-4.309 0-6.502-2.3-6.502-6.288Zm-24.13-3.758c0-5.522 3.917-10.354 9.715-10.354 5.954 0 9.714 4.065 9.714 10.354 0 .306-.078.69-.078.69h-15.747c.235 4.141 3.212 6.365 6.346 6.365 2.193 0 4.387-.843 5.405-3.374l3.291 1.38c-1.175 2.761-4.074 5.292-8.696 5.292-5.876 0-9.95-4.525-9.95-10.353Zm9.715-7.056c-2.742 0-4.936 1.84-5.719 4.678h11.516c-.078-1.687-1.567-4.678-5.797-4.678Zm-27.969 14.035h-.157v2.684h-3.603V7.976h3.76v8.973l-.157 2.684h.157c1.175-1.764 3.604-3.374 6.816-3.374 5.014 0 9.479 4.448 9.479 10.353 0 5.905-4.387 10.353-9.479 10.353-3.212.077-5.719-1.457-6.816-3.297Zm12.457-6.98c0-4.37-2.977-7.055-6.346-7.055-3.291 0-6.346 2.608-6.346 7.056s2.977 7.055 6.346 7.055c3.369-.076 6.346-2.684 6.346-7.055Zm-37.683 3.835c0-4.448 4.073-6.825 8.696-6.825 2.663 0 4.622.767 5.405 1.227v-.537c0-2.914-2.428-4.755-5.17-4.755-2.037 0-4.074.997-4.78 2.838l-3.446-1.457c.705-1.764 3.055-4.755 8.069-4.755 4.857 0 8.853 2.837 8.853 8.36v11.733h-3.604v-2.684h-.157c-1.097 1.61-3.133 3.374-6.502 3.374-3.996 0-7.364-2.454-7.364-6.519Zm14.101-2.53s-1.567-1.304-4.779-1.304c-3.917 0-5.484 2.07-5.484 3.834 0 2.071 2.194 3.068 4.153 3.068 2.977.077 6.11-2.378 6.11-5.599ZM62.988 16.948l-.157 2.684h.157c1.019-1.764 3.604-3.374 6.267-3.374 5.093 0 7.6 3.374 7.6 8.206v11.887h-3.76v-11.35c0-4.065-2.038-5.369-4.936-5.369-3.212 0-5.25 2.991-5.25 5.982v10.737h-3.76V7.976h3.76l.079 8.973Zm-22.72 16.719h-.156l.157 2.684v8.59h-3.761V16.948h3.604v2.684h.157c1.175-1.764 3.603-3.374 6.815-3.374 5.014 0 9.48 4.448 9.48 10.353 0 5.905-4.466 10.43-9.558 10.43-3.134 0-5.64-1.534-6.737-3.374Zm12.457-6.98c0-4.37-2.977-7.055-6.346-7.055-3.29 0-6.346 2.608-6.346 7.056s2.977 7.055 6.346 7.055c3.369-.076 6.346-2.684 6.346-7.055Zm-23.895 9.74h3.76V7.977h-3.76v28.453ZM11.517 7.977.548 36.429h4.153l2.82-7.746h12.222l2.82 7.746h4.074L15.669 7.976h-4.152Zm1.958 4.448h.157l4.779 12.884H8.774l4.701-12.884Z" fill="#B4A6A2"/></g><defs><clipPath id="a"><path fill="#fff" d="M0 0h157v51H0z"/></clipPath></defs></svg>