<svg aria-hidden="true" width="156" height="51" fill="none" xmlns="http://www.w3.org/2000/svg"><path d="M94.114 36.505c-9.42 3.912-19.617 5.829-28.88 5.829-13.779 0-27.09-3.681-37.91-9.893-.935-.537-1.635.46-.857 1.15 9.964 8.82 23.198 14.188 37.91 14.188 10.431 0 22.575-3.298 30.982-9.356 1.324-.997.078-2.531-1.245-1.918Z" fill="#B4A6A2"/><path d="M88.82 33.054c-.7.537-.545 1.227.234 1.15 2.647-.306 8.718-.996 9.808.384 1.09 1.38-1.167 6.902-2.18 9.433-.31.767.39 1.074 1.013.537 4.515-3.681 5.682-11.504 4.67-12.578-.934-1.303-8.796-2.224-13.545 1.074ZM105.168 23.621c-2.569-1.457-5.605-1.84-8.408-1.764l7.629-10.737c.701-.92 1.09-1.534 1.09-1.994v-2.76c0-.537-.389-.767-.856-.767H89.91a.774.774 0 0 0-.778.766v3.221c0 .537.389.767.856.767h7.707L88.82 22.778c-.545.766-.545 1.687-.545 2.224v3.297c0 .537.545.997 1.012.69 4.982-2.607 10.976-2.377 15.491 0 .545.307 1.09-.306 1.09-.69v-3.374c0-.537-.155-.92-.7-1.304ZM31.215 29.756h4.515c.545 0 .857-.383.857-.767V17.026c0-2.608-.156-6.213 3.114-6.213 3.191 0 2.724 3.682 2.724 6.213v11.963c0 .46.39.767.779.767h4.514c.545 0 .857-.383.857-.767V17.026c0-1.304-.078-3.221.467-4.372.467-1.15 1.557-1.84 2.647-1.84 1.323 0 2.335.46 2.569 1.917.233.92.155 3.298.155 4.218v11.964c0 .46.39.767.779.767h4.515c.544 0 .856-.384.856-.767V14.648c0-2.454.311-5.215-1.168-7.056-1.245-1.687-3.347-2.53-5.138-2.53-2.568 0-5.06 1.38-6.15 4.218-1.245-2.838-2.957-4.218-5.76-4.218-2.724 0-4.748 1.38-5.838 4.218h-.078V6.365c0-.46-.39-.69-.778-.767h-4.126c-.545 0-.856.384-.856.767v22.548c-.234.46.078.767.544.843ZM118.09 5.138c-6.461 0-10.042 5.522-10.042 12.501 0 6.979 3.581 12.578 10.042 12.578 6.227 0 10.197-5.522 10.197-12.348.078-7.056-3.503-12.73-10.197-12.73Zm0 20.4c-3.503 0-3.503-5.905-3.503-8.666 0-2.76.233-7.132 3.503-7.132 1.479 0 2.413.613 2.88 2.224.545 1.764.623 4.065.623 5.982.155 2.914 0 7.592-3.503 7.592ZM143.623 5.138c-3.114 0-4.827 1.534-6.072 4.602h-.078V6.289c-.078-.384-.467-.614-.778-.614h-4.126c-.467 0-.779.384-.856.69v22.548c0 .46.389.767.778.767h4.437c.545 0 .856-.384.856-.767V16.795c0-1.533.078-2.914.701-4.294.545-1.074 1.557-1.764 2.569-1.764 3.114 0 2.802 3.604 2.802 6.058v12.271c.078.384.389.69.779.69h4.515a.843.843 0 0 0 .856-.69V14.878c0-2.224 0-5.215-1.168-6.979-1.245-2.07-3.191-2.76-5.215-2.76ZM77.533 14.495c-2.569.307-5.916.537-8.407 1.534-2.803 1.227-4.749 3.604-4.749 7.209 0 4.601 2.88 6.825 6.695 6.825 3.191 0 4.904-.69 7.395-3.22.779 1.15 1.09 1.686 2.569 2.913.39.154.7.154 1.09-.076.856-.767 2.569-2.148 3.425-2.915.39-.306.311-.767 0-1.15-.779-1.15-1.635-1.994-1.635-4.065v-6.825c0-2.915.234-5.599-1.946-7.593-1.635-1.61-4.593-2.224-6.772-2.224-4.282 0-8.952 1.534-9.964 6.672-.078.537.31.844.622.92l4.204.538c.467 0 .7-.46.778-.767.39-1.764 1.869-2.608 3.581-2.608.934 0 1.946.384 2.569 1.15.623.92.545 2.148.545 3.222v.46Zm-.934 9.126c-.7 1.227-1.79 1.994-3.114 1.994-1.713 0-2.725-1.304-2.725-3.221 0-3.758 3.426-4.448 6.695-4.448v.92c.078 1.84.078 3.298-.856 4.755ZM26.934 25.615c-.778-1.15-1.635-1.994-1.635-4.065v-6.825c0-2.915.234-5.599-1.946-7.593-1.712-1.61-4.593-2.224-6.772-2.224-4.282 0-8.952 1.534-9.964 6.672-.078.537.311.844.623.92l4.359.46c.467 0 .7-.46.778-.766.39-1.764 1.868-2.608 3.659-2.608.934 0 1.946.384 2.569 1.15.622.921.545 2.148.545 3.222v.537c-2.647.307-5.994.537-8.485 1.534-2.803 1.227-4.749 3.604-4.749 7.209 0 4.601 2.88 6.825 6.695 6.825 3.191 0 4.904-.69 7.395-3.22.778 1.15 1.09 1.686 2.569 2.913.39.154.7.154 1.09-.076.856-.767 2.569-2.148 3.425-2.915.233-.306.155-.767-.156-1.15Zm-8.718-1.994c-.701 1.227-1.79 1.994-3.114 1.994-1.713 0-2.647-1.304-2.647-3.221 0-3.758 3.425-4.448 6.695-4.448v.92c-.156 1.84-.078 3.298-.934 4.755Z" fill="#B4A6A2"/></svg>