<svg aria-hidden="true" width="62" height="62" fill="none" xmlns="http://www.w3.org/2000/svg"><circle cx="31" cy="31" r="31" fill="#EEEBFF"/><path d="m26.113 38.469-5.122-2.958 8.727-15.116 5.226 3.017c1.5.867 2.615 1.914 3.343 3.141.736 1.226 1.07 2.57 1 4.031-.07 1.462-.559 2.978-1.465 4.548-.909 1.574-1.983 2.759-3.222 3.552a7.01 7.01 0 0 1-4.021 1.153c-1.442-.026-2.93-.482-4.466-1.368Zm-1.016-3.746 2.251 1.3c1.053.608 2.043.923 2.968.945.928.018 1.79-.255 2.588-.818.8-.568 1.534-1.43 2.202-2.586.667-1.157 1.044-2.218 1.13-3.186.09-.972-.104-1.848-.579-2.627-.467-.782-1.212-1.468-2.236-2.059l-2.332-1.346-5.992 10.377Z" fill="#7B61FF"/></svg>