<svg aria-hidden="true" width="157" height="51" fill="none" xmlns="http://www.w3.org/2000/svg"><path d="M38.78 17.793H20.448v5.291h13.005c-.627 7.44-6.973 10.66-13.005 10.66-7.678 0-14.337-5.905-14.337-14.188.078-8.052 6.424-14.188 14.415-14.188 6.19 0 9.793 3.835 9.793 3.835l3.839-3.835S29.3.077 20.369.077C8.931 0 .235 9.357.235 19.48c0 9.893 8.226 19.556 20.37 19.556 10.654 0 18.488-7.132 18.488-17.716 0-2.224-.313-3.527-.313-3.527ZM53.743 13.958c-7.52 0-12.926 5.752-12.926 12.424 0 6.826 5.249 12.654 13.005 12.654 7.05 0 12.77-5.292 12.77-12.5 0-8.36-6.66-12.578-12.849-12.578Zm.079 4.908c3.682 0 7.207 2.914 7.207 7.593 0 4.601-3.447 7.592-7.207 7.592-4.074 0-7.286-3.22-7.286-7.67-.078-4.294 3.134-7.515 7.286-7.515ZM81.79 13.958c-7.52 0-12.926 5.752-12.926 12.424 0 6.826 5.249 12.654 13.005 12.654 7.05 0 12.77-5.292 12.77-12.5 0-8.36-6.66-12.578-12.849-12.578Zm.079 4.908c3.682 0 7.207 2.914 7.207 7.593 0 4.601-3.447 7.592-7.207 7.592-4.074 0-7.286-3.22-7.286-7.67-.079-4.294 3.134-7.515 7.286-7.515ZM109.289 13.958c-6.894 0-12.3 5.905-12.3 12.577 0 7.516 6.267 12.578 12.222 12.578 3.682 0 5.562-1.457 7.05-3.068V38.5c0 4.295-2.663 6.902-6.737 6.902-3.917 0-5.876-2.837-6.581-4.448l-5.014 1.994c1.724 3.605 5.249 7.363 11.517 7.363 6.815 0 12.064-4.218 12.064-13.114V14.725h-5.405v2.147c-1.567-1.764-3.839-2.914-6.816-2.914Zm.47 4.908c3.369 0 6.816 2.838 6.816 7.67 0 4.908-3.447 7.592-6.894 7.592-3.683 0-7.13-2.915-7.13-7.593.079-4.831 3.604-7.669 7.208-7.669ZM145.484 13.881c-6.503 0-11.987 5.062-11.987 12.5 0 7.9 6.111 12.578 12.613 12.578 5.406 0 8.775-2.914 10.733-5.521l-4.465-2.915c-1.175 1.764-3.056 3.451-6.268 3.451-3.604 0-5.249-1.917-6.267-3.834L157 23.16l-.862-2.07c-1.723-3.834-5.562-7.209-10.654-7.209Zm.156 4.832c2.351 0 3.996 1.227 4.779 2.684l-11.516 4.678c-.47-3.604 3.055-7.362 6.737-7.362ZM125.271 38.27h5.641V1.303h-5.641v36.965Z" fill="#B4A6A2"/></svg>