<svg aria-hidden="true" width="157" height="51" fill="none" xmlns="http://www.w3.org/2000/svg"><path d="M22.015 44.328c-2.35.383-4.701.537-7.208.843L7.286 23.544v22.548c-2.35.23-4.466.537-6.738.92V5.675h6.268l8.54 23.468V5.675h6.659v38.653ZM35.02 20.86c2.585 0 6.502-.153 8.852-.153v6.442c-2.898 0-6.346 0-8.852.153v9.587c3.838-.23 7.755-.537 11.673-.69v6.212l-18.254 1.38V5.675h18.254v6.442H35.02v8.743Zm36.116-8.666H64.32v29.68c-2.194 0-4.466 0-6.58.076V12.194h-6.817V5.675h20.291c-.078 0-.078 6.519-.078 6.519ZM81.869 20.4h9.01v6.442h-9.01V41.49h-6.503V5.675h18.411v6.442H81.869V20.4Zm22.641 15.415c3.76.077 7.521.384 11.203.537v6.365c-5.876-.383-11.751-.69-17.784-.843V5.675h6.581v30.14Zm16.765 7.362c2.116.154 4.309.23 6.503.46V5.676h-6.503v37.502Zm35.333-37.502-8.382 19.633 8.382 21.627c-2.507-.306-4.935-.767-7.442-1.15l-4.701-11.964-4.857 10.967c-2.35-.383-4.701-.537-7.051-.844l8.461-18.866-7.678-19.403h7.051L144.7 16.49l4.622-10.814h7.286Z" fill="#B4A6A2"/></svg>