<svg aria-hidden="true" width="157" height="51" fill="none" xmlns="http://www.w3.org/2000/svg"><g clip-path="url(#a)"><path d="M33.688 11.887c0-.23-.235-.307-.392-.383-.157 0-3.526-.23-3.526-.23l-2.585-2.531c-.235-.23-.783-.154-.94-.154 0 0-.548.154-1.332.384-.783-2.224-2.115-4.218-4.544-4.218h-.235c-.705-.92-1.567-1.304-2.272-1.304-5.64 0-8.304 6.902-9.166 10.43-2.193.69-3.76 1.15-3.917 1.15-1.175.384-1.254.384-1.41 1.534C3.212 17.562 0 41.874 0 41.874l24.991 4.601 13.554-2.837c-.078-.077-4.779-31.52-4.857-31.75ZM23.58 9.433c-.626.23-1.331.384-2.115.614v-.46c0-1.381-.235-2.455-.548-3.375 1.253.307 2.115 1.687 2.663 3.221ZM19.43 6.595c.314.844.549 2.071.549 3.682v.23c-1.332.383-2.9.843-4.388 1.303.862-3.067 2.429-4.678 3.84-5.215Zm-1.723-1.533c.235 0 .47.076.705.23-1.802.843-3.76 2.914-4.544 7.132-1.175.383-2.35.69-3.447 1.074 1.018-3.221 3.29-8.436 7.286-8.436Z" fill="#B4A6A2"/><path d="M33.374 11.58c-.156 0-3.525-.23-3.525-.23l-2.585-2.53a.605.605 0 0 0-.392-.154l-1.88 37.81 13.553-2.838s-4.779-31.444-4.779-31.674c-.078-.307-.235-.384-.392-.384Z" fill="#B4A6A2"/><path d="m20.37 18.866-1.646 4.832s-1.489-.767-3.29-.767c-2.664 0-2.742 1.61-2.742 1.994 0 2.224 5.875 3.067 5.875 8.283 0 4.064-2.663 6.748-6.189 6.748-4.309 0-6.502-2.607-6.502-2.607l1.175-3.681s2.272 1.917 4.152 1.917c1.254 0 1.724-.997 1.724-1.687 0-2.915-4.858-3.068-4.858-7.823 0-3.988 2.977-7.899 8.853-7.899 2.35.077 3.447.69 3.447.69Z" fill="#fff"/><path d="M54.292 27.992c-1.332-.69-2.037-1.303-2.037-2.147 0-1.074.94-1.764 2.507-1.764 1.724 0 3.29.69 3.29.69l1.254-3.68s-1.175-.844-4.466-.844c-4.622 0-7.912 2.607-7.912 6.288 0 2.071 1.488 3.682 3.525 4.832 1.645.92 2.194 1.534 2.194 2.53 0 .998-.784 1.765-2.35 1.765-2.272 0-4.388-1.15-4.388-1.15l-1.253 3.604s1.958 1.304 5.249 1.304c4.779 0 8.226-2.301 8.226-6.443 0-2.224-1.724-3.834-3.84-4.984Zm19.037-7.745c-2.35 0-4.23 1.073-5.64 2.76h-.079l2.037-10.43H64.32l-5.17 26.536h5.327l1.801-9.127c.706-3.45 2.507-5.598 4.231-5.598 1.175 0 1.645.767 1.645 1.917 0 .69-.078 1.61-.235 2.301l-2.037 10.43h5.328L77.325 28.3c.235-1.15.392-2.53.392-3.374-.079-2.915-1.646-4.678-4.388-4.678Zm16.374 0c-6.424 0-10.655 5.675-10.655 11.964 0 4.064 2.586 7.285 7.365 7.285 6.267 0 10.498-5.522 10.498-11.964 0-3.758-2.194-7.285-7.208-7.285Zm-2.585 15.185c-1.802 0-2.585-1.534-2.585-3.375 0-2.99 1.566-7.9 4.465-7.9 1.88 0 2.507 1.611 2.507 3.145 0 3.221-1.567 8.13-4.387 8.13Zm23.424-15.185c-3.603 0-5.64 3.067-5.64 3.067h-.079l.314-2.76h-4.701c-.235 1.917-.627 4.754-1.097 6.902l-3.682 19.096h5.328l1.488-7.746h.078s1.097.69 3.134.69c6.268 0 10.341-6.288 10.341-12.577 0-3.605-1.566-6.672-5.484-6.672Zm-5.092 15.261c-1.41 0-2.193-.767-2.193-.767l.861-4.908c.627-3.221 2.351-5.445 4.231-5.445 1.645 0 2.115 1.457 2.115 2.838 0 3.527-2.037 8.282-5.014 8.282Zm18.176-22.777c-1.724 0-3.056 1.304-3.056 2.99 0 1.535 1.019 2.608 2.507 2.608h.079c1.645 0 3.055-1.073 3.133-2.99 0-1.534-1.018-2.608-2.663-2.608Zm-7.443 26.305h5.328l3.603-18.483h-5.327l-3.604 18.483Zm22.485-18.406h-3.682l.156-.843c.314-1.764 1.41-3.375 3.134-3.375.94 0 1.724.23 1.724.23l1.018-4.064s-.94-.46-2.899-.46c-1.88 0-3.76.536-5.249 1.763-1.802 1.534-2.663 3.681-3.055 5.905l-.157.844h-2.507l-.783 3.911h2.507l-2.821 14.572h5.328l2.82-14.572h3.682l.784-3.91Zm12.77 0s-3.369 8.206-4.858 12.654h-.078c-.078-1.457-1.332-12.654-1.332-12.654h-5.641l3.213 16.949c.078.383 0 .614-.079.844-.627 1.15-1.645 2.3-2.899 3.144-1.018.69-2.115 1.15-2.977 1.457l1.489 4.448c1.097-.23 3.29-1.074 5.249-2.837 2.429-2.224 4.701-5.676 6.973-10.354L157 20.631h-5.562Z" fill="#B4A6A2"/></g><defs><clipPath id="a"><path fill="#fff" d="M0 0h157v51H0z"/></clipPath></defs></svg>