<svg xmlns="http://www.w3.org/2000/svg" xmlns:xlink="http://www.w3.org/1999/xlink"><defs><clipPath id="a"><path fill="#fff" d="M0 0h157v51H0z"/></clipPath><clipPath id="a"><path fill="#fff" d="M0 0h157v51H0z"/></clipPath><clipPath id="a"><path fill="#fff" d="M0 0h35v35H0z"/></clipPath></defs><symbol id="alphabet-logo"><g clip-path="url(#a)"><path class="partners-logo" d="M147.599 30.447v-10.2h-3.526v-3.375h3.526V10.89h3.76v5.982h4.858v3.375h-4.858v9.97c0 2.224.94 3.144 2.664 3.144.705 0 1.175-.077 1.724-.307l1.331 3.145c-.861.383-1.723.536-2.977.536-4.309 0-6.502-2.3-6.502-6.288Zm-24.13-3.758c0-5.522 3.917-10.354 9.715-10.354 5.954 0 9.714 4.065 9.714 10.354 0 .306-.078.69-.078.69h-15.747c.235 4.141 3.212 6.365 6.346 6.365 2.193 0 4.387-.843 5.405-3.374l3.291 1.38c-1.175 2.761-4.074 5.292-8.696 5.292-5.876 0-9.95-4.525-9.95-10.353Zm9.715-7.056c-2.742 0-4.936 1.84-5.719 4.678h11.516c-.078-1.687-1.567-4.678-5.797-4.678Zm-27.969 14.035h-.157v2.684h-3.603V7.976h3.76v8.973l-.157 2.684h.157c1.175-1.764 3.604-3.374 6.816-3.374 5.014 0 9.479 4.448 9.479 10.353 0 5.905-4.387 10.353-9.479 10.353-3.212.077-5.719-1.457-6.816-3.297Zm12.457-6.98c0-4.37-2.977-7.055-6.346-7.055-3.291 0-6.346 2.608-6.346 7.056s2.977 7.055 6.346 7.055c3.369-.076 6.346-2.684 6.346-7.055Zm-37.683 3.835c0-4.448 4.073-6.825 8.696-6.825 2.663 0 4.622.767 5.405 1.227v-.537c0-2.914-2.428-4.755-5.17-4.755-2.037 0-4.074.997-4.78 2.838l-3.446-1.457c.705-1.764 3.055-4.755 8.069-4.755 4.857 0 8.853 2.837 8.853 8.36v11.733h-3.604v-2.684h-.157c-1.097 1.61-3.133 3.374-6.502 3.374-3.996 0-7.364-2.454-7.364-6.519Zm14.101-2.53s-1.567-1.304-4.779-1.304c-3.917 0-5.484 2.07-5.484 3.834 0 2.071 2.194 3.068 4.153 3.068 2.977.077 6.11-2.378 6.11-5.599ZM62.988 16.948l-.157 2.684h.157c1.019-1.764 3.604-3.374 6.267-3.374 5.093 0 7.6 3.374 7.6 8.206v11.887h-3.76v-11.35c0-4.065-2.038-5.369-4.936-5.369-3.212 0-5.25 2.991-5.25 5.982v10.737h-3.76V7.976h3.76l.079 8.973Zm-22.72 16.719h-.156l.157 2.684v8.59h-3.761V16.948h3.604v2.684h.157c1.175-1.764 3.603-3.374 6.815-3.374 5.014 0 9.48 4.448 9.48 10.353 0 5.905-4.466 10.43-9.558 10.43-3.134 0-5.64-1.534-6.737-3.374Zm12.457-6.98c0-4.37-2.977-7.055-6.346-7.055-3.29 0-6.346 2.608-6.346 7.056s2.977 7.055 6.346 7.055c3.369-.076 6.346-2.684 6.346-7.055Zm-23.895 9.74h3.76V7.977h-3.76v28.453ZM11.517 7.977.548 36.429h4.153l2.82-7.746h12.222l2.82 7.746h4.074L15.669 7.976h-4.152Zm1.958 4.448h.157l4.779 12.884H8.774l4.701-12.884Z"/></g></symbol><symbol id="amazon-logo"><path d="M94.114 36.505c-9.42 3.912-19.617 5.829-28.88 5.829-13.779 0-27.09-3.681-37.91-9.893-.935-.537-1.635.46-.857 1.15 9.964 8.82 23.198 14.188 37.91 14.188 10.431 0 22.575-3.298 30.982-9.356 1.324-.997.078-2.531-1.245-1.918Z"/><path d="M88.82 33.054c-.7.537-.545 1.227.234 1.15 2.647-.306 8.718-.996 9.808.384 1.09 1.38-1.167 6.902-2.18 9.433-.31.767.39 1.074 1.013.537 4.515-3.681 5.682-11.504 4.67-12.578-.934-1.303-8.796-2.224-13.545 1.074ZM105.168 23.621c-2.569-1.457-5.605-1.84-8.408-1.764l7.629-10.737c.701-.92 1.09-1.534 1.09-1.994v-2.76c0-.537-.389-.767-.856-.767H89.91a.774.774 0 0 0-.778.766v3.221c0 .537.389.767.856.767h7.707L88.82 22.778c-.545.766-.545 1.687-.545 2.224v3.297c0 .537.545.997 1.012.69 4.982-2.607 10.976-2.377 15.491 0 .545.307 1.09-.306 1.09-.69v-3.374c0-.537-.155-.92-.7-1.304ZM31.215 29.756h4.515c.545 0 .857-.383.857-.767V17.026c0-2.608-.156-6.213 3.114-6.213 3.191 0 2.724 3.682 2.724 6.213v11.963c0 .46.39.767.779.767h4.514c.545 0 .857-.383.857-.767V17.026c0-1.304-.078-3.221.467-4.372.467-1.15 1.557-1.84 2.647-1.84 1.323 0 2.335.46 2.569 1.917.233.92.155 3.298.155 4.218v11.964c0 .46.39.767.779.767h4.515c.544 0 .856-.384.856-.767V14.648c0-2.454.311-5.215-1.168-7.056-1.245-1.687-3.347-2.53-5.138-2.53-2.568 0-5.06 1.38-6.15 4.218-1.245-2.838-2.957-4.218-5.76-4.218-2.724 0-4.748 1.38-5.838 4.218h-.078V6.365c0-.46-.39-.69-.778-.767h-4.126c-.545 0-.856.384-.856.767v22.548c-.234.46.078.767.544.843ZM118.09 5.138c-6.461 0-10.042 5.522-10.042 12.501 0 6.979 3.581 12.578 10.042 12.578 6.227 0 10.197-5.522 10.197-12.348.078-7.056-3.503-12.73-10.197-12.73Zm0 20.4c-3.503 0-3.503-5.905-3.503-8.666 0-2.76.233-7.132 3.503-7.132 1.479 0 2.413.613 2.88 2.224.545 1.764.623 4.065.623 5.982.155 2.914 0 7.592-3.503 7.592ZM143.623 5.138c-3.114 0-4.827 1.534-6.072 4.602h-.078V6.289c-.078-.384-.467-.614-.778-.614h-4.126c-.467 0-.779.384-.856.69v22.548c0 .46.389.767.778.767h4.437c.545 0 .856-.384.856-.767V16.795c0-1.533.078-2.914.701-4.294.545-1.074 1.557-1.764 2.569-1.764 3.114 0 2.802 3.604 2.802 6.058v12.271c.078.384.389.69.779.69h4.515a.843.843 0 0 0 .856-.69V14.878c0-2.224 0-5.215-1.168-6.979-1.245-2.07-3.191-2.76-5.215-2.76ZM77.533 14.495c-2.569.307-5.916.537-8.407 1.534-2.803 1.227-4.749 3.604-4.749 7.209 0 4.601 2.88 6.825 6.695 6.825 3.191 0 4.904-.69 7.395-3.22.779 1.15 1.09 1.686 2.569 2.913.39.154.7.154 1.09-.076.856-.767 2.569-2.148 3.425-2.915.39-.306.311-.767 0-1.15-.779-1.15-1.635-1.994-1.635-4.065v-6.825c0-2.915.234-5.599-1.946-7.593-1.635-1.61-4.593-2.224-6.772-2.224-4.282 0-8.952 1.534-9.964 6.672-.078.537.31.844.622.92l4.204.538c.467 0 .7-.46.778-.767.39-1.764 1.869-2.608 3.581-2.608.934 0 1.946.384 2.569 1.15.623.92.545 2.148.545 3.222v.46Zm-.934 9.126c-.7 1.227-1.79 1.994-3.114 1.994-1.713 0-2.725-1.304-2.725-3.221 0-3.758 3.426-4.448 6.695-4.448v.92c.078 1.84.078 3.298-.856 4.755ZM26.934 25.615c-.778-1.15-1.635-1.994-1.635-4.065v-6.825c0-2.915.234-5.599-1.946-7.593-1.712-1.61-4.593-2.224-6.772-2.224-4.282 0-8.952 1.534-9.964 6.672-.078.537.311.844.623.92l4.359.46c.467 0 .7-.46.778-.766.39-1.764 1.868-2.608 3.659-2.608.934 0 1.946.384 2.569 1.15.622.921.545 2.148.545 3.222v.537c-2.647.307-5.994.537-8.485 1.534-2.803 1.227-4.749 3.604-4.749 7.209 0 4.601 2.88 6.825 6.695 6.825 3.191 0 4.904-.69 7.395-3.22.778 1.15 1.09 1.686 2.569 2.913.39.154.7.154 1.09-.076.856-.767 2.569-2.148 3.425-2.915.233-.306.155-.767-.156-1.15Zm-8.718-1.994c-.701 1.227-1.79 1.994-3.114 1.994-1.713 0-2.647-1.304-2.647-3.221 0-3.758 3.425-4.448 6.695-4.448v.92c-.156 1.84-.078 3.298-.934 4.755Z"/></symbol><symbol id="at-sign"><path d="M17.5 23.333a5.833 5.833 0 1 0 0-11.666 5.833 5.833 0 0 0 0 11.666Z"/><path d="M23.333 11.667v7.291a4.375 4.375 0 0 0 8.75 0V17.5a14.583 14.583 0 1 0-5.716 11.58"/></symbol><symbol id="codepen"><path d="m17.5 2.917 14.583 9.479v10.208L17.5 32.084l-14.583-9.48V12.396L17.5 2.916ZM17.5 32.083v-9.479"/><path d="M32.083 12.396 17.5 22.604 2.917 12.396"/><path d="M2.917 22.604 17.5 12.396l14.583 10.208M17.5 2.917v9.479"/></symbol><symbol id="dribbble"><path d="M17.5 32.083c8.054 0 14.583-6.529 14.583-14.583S25.554 2.917 17.5 2.917 2.917 9.446 2.917 17.5 9.446 32.083 17.5 32.083Z"/><path d="M12.483 4.01c6.373 8.794 8.78 13.738 11.71 25.842m3.705-22.429c-5.425 6.344-13.038 8.254-24.617 8.531m28.438 2.771c-5.104-1.356-9.669-1.196-13.038 0-3.762 1.342-7.306 4.17-10.85 9.217"/></symbol><symbol id="facebook"><path d="M26.25 2.917h-4.375a7.292 7.292 0 0 0-7.292 7.291v4.375h-4.375v5.834h4.375v11.666h5.834V20.417h4.375l1.458-5.834h-5.833v-4.375a1.458 1.458 0 0 1 1.458-1.458h4.375V2.917Z"/></symbol><symbol id="google-logo"><path d="M38.78 17.793H20.448v5.291h13.005c-.627 7.44-6.973 10.66-13.005 10.66-7.678 0-14.337-5.905-14.337-14.188.078-8.052 6.424-14.188 14.415-14.188 6.19 0 9.793 3.835 9.793 3.835l3.839-3.835S29.3.077 20.369.077C8.931 0 .235 9.357.235 19.48c0 9.893 8.226 19.556 20.37 19.556 10.654 0 18.488-7.132 18.488-17.716 0-2.224-.313-3.527-.313-3.527ZM53.743 13.958c-7.52 0-12.926 5.752-12.926 12.424 0 6.826 5.249 12.654 13.005 12.654 7.05 0 12.77-5.292 12.77-12.5 0-8.36-6.66-12.578-12.849-12.578Zm.079 4.908c3.682 0 7.207 2.914 7.207 7.593 0 4.601-3.447 7.592-7.207 7.592-4.074 0-7.286-3.22-7.286-7.67-.078-4.294 3.134-7.515 7.286-7.515ZM81.79 13.958c-7.52 0-12.926 5.752-12.926 12.424 0 6.826 5.249 12.654 13.005 12.654 7.05 0 12.77-5.292 12.77-12.5 0-8.36-6.66-12.578-12.849-12.578Zm.079 4.908c3.682 0 7.207 2.914 7.207 7.593 0 4.601-3.447 7.592-7.207 7.592-4.074 0-7.286-3.22-7.286-7.67-.079-4.294 3.134-7.515 7.286-7.515ZM109.289 13.958c-6.894 0-12.3 5.905-12.3 12.577 0 7.516 6.267 12.578 12.222 12.578 3.682 0 5.562-1.457 7.05-3.068V38.5c0 4.295-2.663 6.902-6.737 6.902-3.917 0-5.876-2.837-6.581-4.448l-5.014 1.994c1.724 3.605 5.249 7.363 11.517 7.363 6.815 0 12.064-4.218 12.064-13.114V14.725h-5.405v2.147c-1.567-1.764-3.839-2.914-6.816-2.914Zm.47 4.908c3.369 0 6.816 2.838 6.816 7.67 0 4.908-3.447 7.592-6.894 7.592-3.683 0-7.13-2.915-7.13-7.593.079-4.831 3.604-7.669 7.208-7.669ZM145.484 13.881c-6.503 0-11.987 5.062-11.987 12.5 0 7.9 6.111 12.578 12.613 12.578 5.406 0 8.775-2.914 10.733-5.521l-4.465-2.915c-1.175 1.764-3.056 3.451-6.268 3.451-3.604 0-5.249-1.917-6.267-3.834L157 23.16l-.862-2.07c-1.723-3.834-5.562-7.209-10.654-7.209Zm.156 4.832c2.351 0 3.996 1.227 4.779 2.684l-11.516 4.678c-.47-3.604 3.055-7.362 6.737-7.362ZM125.271 38.27h5.641V1.303h-5.641v36.965Z"/></symbol><symbol id="instagram"><path d="M24.792 2.917H10.208a7.292 7.292 0 0 0-7.291 7.291v14.584a7.292 7.292 0 0 0 7.291 7.291h14.584a7.292 7.292 0 0 0 7.291-7.291V10.208a7.292 7.292 0 0 0-7.291-7.291Z"/><path d="M23.333 16.581a5.833 5.833 0 1 1-11.54 1.712 5.833 5.833 0 0 1 11.54-1.712ZM25.52 9.48h.015"/></symbol><symbol id="netflix-logo"><path d="M22.015 44.328c-2.35.383-4.701.537-7.208.843L7.286 23.544v22.548c-2.35.23-4.466.537-6.738.92V5.675h6.268l8.54 23.468V5.675h6.659v38.653ZM35.02 20.86c2.585 0 6.502-.153 8.852-.153v6.442c-2.898 0-6.346 0-8.852.153v9.587c3.838-.23 7.755-.537 11.673-.69v6.212l-18.254 1.38V5.675h18.254v6.442H35.02v8.743Zm36.116-8.666H64.32v29.68c-2.194 0-4.466 0-6.58.076V12.194h-6.817V5.675h20.291c-.078 0-.078 6.519-.078 6.519ZM81.869 20.4h9.01v6.442h-9.01V41.49h-6.503V5.675h18.411v6.442H81.869V20.4Zm22.641 15.415c3.76.077 7.521.384 11.203.537v6.365c-5.876-.383-11.751-.69-17.784-.843V5.675h6.581v30.14Zm16.765 7.362c2.116.154 4.309.23 6.503.46V5.676h-6.503v37.502Zm35.333-37.502-8.382 19.633 8.382 21.627c-2.507-.306-4.935-.767-7.442-1.15l-4.701-11.964-4.857 10.967c-2.35-.383-4.701-.537-7.051-.844l8.461-18.866-7.678-19.403h7.051L144.7 16.49l4.622-10.814h7.286Z"/></symbol><symbol id="shopify-logo"><g clip-path="url(#a)"><path d="M33.688 11.887c0-.23-.235-.307-.392-.383-.157 0-3.526-.23-3.526-.23l-2.585-2.531c-.235-.23-.783-.154-.94-.154 0 0-.548.154-1.332.384-.783-2.224-2.115-4.218-4.544-4.218h-.235c-.705-.92-1.567-1.304-2.272-1.304-5.64 0-8.304 6.902-9.166 10.43-2.193.69-3.76 1.15-3.917 1.15-1.175.384-1.254.384-1.41 1.534C3.212 17.562 0 41.874 0 41.874l24.991 4.601 13.554-2.837c-.078-.077-4.779-31.52-4.857-31.75ZM23.58 9.433c-.626.23-1.331.384-2.115.614v-.46c0-1.381-.235-2.455-.548-3.375 1.253.307 2.115 1.687 2.663 3.221ZM19.43 6.595c.314.844.549 2.071.549 3.682v.23c-1.332.383-2.9.843-4.388 1.303.862-3.067 2.429-4.678 3.84-5.215Zm-1.723-1.533c.235 0 .47.076.705.23-1.802.843-3.76 2.914-4.544 7.132-1.175.383-2.35.69-3.447 1.074 1.018-3.221 3.29-8.436 7.286-8.436Z"/><path d="M33.374 11.58c-.156 0-3.525-.23-3.525-.23l-2.585-2.53a.605.605 0 0 0-.392-.154l-1.88 37.81 13.553-2.838s-4.779-31.444-4.779-31.674c-.078-.307-.235-.384-.392-.384Z"/><path class="partners-logo__white" d="m20.37 18.866-1.646 4.832s-1.489-.767-3.29-.767c-2.664 0-2.742 1.61-2.742 1.994 0 2.224 5.875 3.067 5.875 8.283 0 4.064-2.663 6.748-6.189 6.748-4.309 0-6.502-2.607-6.502-2.607l1.175-3.681s2.272 1.917 4.152 1.917c1.254 0 1.724-.997 1.724-1.687 0-2.915-4.858-3.068-4.858-7.823 0-3.988 2.977-7.899 8.853-7.899 2.35.077 3.447.69 3.447.69Z" fill="#fff"/><path d="M54.292 27.992c-1.332-.69-2.037-1.303-2.037-2.147 0-1.074.94-1.764 2.507-1.764 1.724 0 3.29.69 3.29.69l1.254-3.68s-1.175-.844-4.466-.844c-4.622 0-7.912 2.607-7.912 6.288 0 2.071 1.488 3.682 3.525 4.832 1.645.92 2.194 1.534 2.194 2.53 0 .998-.784 1.765-2.35 1.765-2.272 0-4.388-1.15-4.388-1.15l-1.253 3.604s1.958 1.304 5.249 1.304c4.779 0 8.226-2.301 8.226-6.443 0-2.224-1.724-3.834-3.84-4.984Zm19.037-7.745c-2.35 0-4.23 1.073-5.64 2.76h-.079l2.037-10.43H64.32l-5.17 26.536h5.327l1.801-9.127c.706-3.45 2.507-5.598 4.231-5.598 1.175 0 1.645.767 1.645 1.917 0 .69-.078 1.61-.235 2.301l-2.037 10.43h5.328L77.325 28.3c.235-1.15.392-2.53.392-3.374-.079-2.915-1.646-4.678-4.388-4.678Zm16.374 0c-6.424 0-10.655 5.675-10.655 11.964 0 4.064 2.586 7.285 7.365 7.285 6.267 0 10.498-5.522 10.498-11.964 0-3.758-2.194-7.285-7.208-7.285Zm-2.585 15.185c-1.802 0-2.585-1.534-2.585-3.375 0-2.99 1.566-7.9 4.465-7.9 1.88 0 2.507 1.611 2.507 3.145 0 3.221-1.567 8.13-4.387 8.13Zm23.424-15.185c-3.603 0-5.64 3.067-5.64 3.067h-.079l.314-2.76h-4.701c-.235 1.917-.627 4.754-1.097 6.902l-3.682 19.096h5.328l1.488-7.746h.078s1.097.69 3.134.69c6.268 0 10.341-6.288 10.341-12.577 0-3.605-1.566-6.672-5.484-6.672Zm-5.092 15.261c-1.41 0-2.193-.767-2.193-.767l.861-4.908c.627-3.221 2.351-5.445 4.231-5.445 1.645 0 2.115 1.457 2.115 2.838 0 3.527-2.037 8.282-5.014 8.282Zm18.176-22.777c-1.724 0-3.056 1.304-3.056 2.99 0 1.535 1.019 2.608 2.507 2.608h.079c1.645 0 3.055-1.073 3.133-2.99 0-1.534-1.018-2.608-2.663-2.608Zm-7.443 26.305h5.328l3.603-18.483h-5.327l-3.604 18.483Zm22.485-18.406h-3.682l.156-.843c.314-1.764 1.41-3.375 3.134-3.375.94 0 1.724.23 1.724.23l1.018-4.064s-.94-.46-2.899-.46c-1.88 0-3.76.536-5.249 1.763-1.802 1.534-2.663 3.681-3.055 5.905l-.157.844h-2.507l-.783 3.911h2.507l-2.821 14.572h5.328l2.82-14.572h3.682l.784-3.91Zm12.77 0s-3.369 8.206-4.858 12.654h-.078c-.078-1.457-1.332-12.654-1.332-12.654h-5.641l3.213 16.949c.078.383 0 .614-.079.844-.627 1.15-1.645 2.3-2.899 3.144-1.018.69-2.115 1.15-2.977 1.457l1.489 4.448c1.097-.23 3.29-1.074 5.249-2.837 2.429-2.224 4.701-5.676 6.973-10.354L157 20.631h-5.562Z"/></g></symbol><symbol id="twitter"><g clip-path="url(#a)"><path d="M33.542 4.375a15.897 15.897 0 0 1-4.58 2.231A6.534 6.534 0 0 0 17.5 10.981v1.459A15.545 15.545 0 0 1 4.375 5.833s-5.833 13.125 7.292 18.959a16.975 16.975 0 0 1-10.209 2.916c13.125 7.292 29.167 0 29.167-16.77a6.556 6.556 0 0 0-.117-1.21 11.259 11.259 0 0 0 3.034-5.353Z"/></g></symbol></svg>