<svg aria-hidden="true" width="35" height="35" fill="none" xmlns="http://www.w3.org/2000/svg"><g clip-path="url(#a)"><path d="M33.542 4.375a15.897 15.897 0 0 1-4.58 2.231A6.534 6.534 0 0 0 17.5 10.981v1.459A15.545 15.545 0 0 1 4.375 5.833s-5.833 13.125 7.292 18.959a16.975 16.975 0 0 1-10.209 2.916c13.125 7.292 29.167 0 29.167-16.77a6.556 6.556 0 0 0-.117-1.21 11.259 11.259 0 0 0 3.034-5.353v0Z" stroke="#6B7280" stroke-width="3" stroke-linecap="round" stroke-linejoin="round"/></g><defs><clipPath id="a"><path fill="#fff" d="M0 0h35v35H0z"/></clipPath></defs></svg>